<svg width="50" height="50" viewBox="0 0 50 50" fill="none" xmlns="http://www.w3.org/2000/svg">
<path d="M9.10004 26.9229V25.1849H12.7381V26.9229H9.10004ZM16.9513 29.3792C16.8895 29.0316 16.8586 28.7342 16.8586 28.487C16.8586 28.0081 16.9475 27.564 17.1251 27.1546C17.3028 26.7452 17.5229 26.4092 17.7855 26.1466C18.0482 25.884 18.3339 25.6329 18.6429 25.3935C18.9596 25.154 19.2493 24.9532 19.5119 24.791C19.7745 24.6211 19.9946 24.4434 20.1723 24.258C20.3499 24.0649 20.4388 23.8757 20.4388 23.6903C20.4388 23.42 20.3499 23.2153 20.1723 23.0763C19.9946 22.9372 19.7861 22.8677 19.5466 22.8677C19.2917 22.8677 19.0562 22.9527 18.8399 23.1226C18.6236 23.2925 18.4498 23.5011 18.3185 23.7483L16.8123 22.7403C17.0826 22.215 17.4611 21.7863 17.9477 21.4542C18.4421 21.122 19.0368 20.956 19.732 20.956C20.489 20.956 21.1494 21.1761 21.7133 21.6164C22.2771 22.0489 22.559 22.6746 22.559 23.4934C22.559 23.9723 22.4432 24.4087 22.2115 24.8026C21.9797 25.1965 21.6978 25.5209 21.3657 25.7758C21.0335 26.023 20.7014 26.2509 20.3693 26.4594C20.0371 26.6603 19.7475 26.8611 19.5003 27.0619C19.2531 27.255 19.1218 27.4481 19.1064 27.6412H22.6865V29.3792H16.9513ZM23.6787 28.4291L24.6519 26.8649C25.1771 27.3593 25.7371 27.6065 26.3319 27.6065C26.6331 27.6065 26.8996 27.5176 27.1313 27.34C27.3708 27.1546 27.4905 26.9036 27.4905 26.5869C27.4905 26.2702 27.3669 26.0192 27.1198 25.8338C26.8726 25.6484 26.5559 25.5557 26.1697 25.5557C25.7989 25.5557 25.4282 25.6484 25.0574 25.8338L23.9799 25.4283L24.3159 21.095H28.9504V22.8329H26.077L26.0307 23.5976L25.9843 23.922H26.0075C26.1542 23.868 26.3551 23.8409 26.61 23.8409C27.5523 23.8409 28.2822 24.0997 28.7998 24.6172C29.3173 25.127 29.576 25.7758 29.576 26.5637C29.576 27.4211 29.2902 28.1278 28.7187 28.684C28.1471 29.2401 27.4094 29.5182 26.5057 29.5182C25.378 29.5182 24.4356 29.1552 23.6787 28.4291ZM32.4845 24.9532C31.8975 24.9532 31.3993 24.7601 30.9899 24.3739C30.5883 23.9877 30.3874 23.5165 30.3874 22.9604C30.3874 22.412 30.5921 21.9408 31.0015 21.5469C31.4109 21.1529 31.9052 20.956 32.4845 20.956C33.0638 20.956 33.5582 21.1529 33.9676 21.5469C34.3769 21.9408 34.5816 22.412 34.5816 22.9604C34.5816 23.5165 34.3769 23.9877 33.9676 24.3739C33.5582 24.7601 33.0638 24.9532 32.4845 24.9532ZM30.8509 29.3792L37.2465 21.095H39.0076L32.612 29.3792H30.8509ZM32.0327 23.3891C32.1563 23.5049 32.3069 23.5629 32.4845 23.5629C32.6622 23.5629 32.8128 23.5049 32.9364 23.3891C33.06 23.2655 33.1218 23.1187 33.1218 22.9488C33.1218 22.7866 33.0561 22.6476 32.9248 22.5317C32.8012 22.4081 32.6545 22.3463 32.4845 22.3463C32.3146 22.3463 32.164 22.4081 32.0327 22.5317C31.9091 22.6476 31.8473 22.7866 31.8473 22.9488C31.8473 23.1187 31.9091 23.2655 32.0327 23.3891ZM35.3347 27.5254C35.3347 26.9769 35.5394 26.5058 35.9488 26.1118C36.3582 25.7179 36.8525 25.5209 37.4318 25.5209C38.0112 25.5209 38.5055 25.7179 38.9149 26.1118C39.3243 26.5058 39.5289 26.9769 39.5289 27.5254C39.5289 28.0815 39.3243 28.5527 38.9149 28.9389C38.5055 29.3251 38.0112 29.5182 37.4318 29.5182C36.8448 29.5182 36.3466 29.3251 35.9372 28.9389C35.5356 28.5527 35.3347 28.0815 35.3347 27.5254ZM36.7946 27.5138C36.7946 27.6837 36.8564 27.8305 36.98 27.954C37.1036 28.0699 37.2542 28.1278 37.4318 28.1278C37.6095 28.1278 37.7601 28.0699 37.8837 27.954C38.0073 27.8305 38.0691 27.6837 38.0691 27.5138C38.0691 27.3516 38.0034 27.2125 37.8721 27.0967C37.7485 26.9731 37.6018 26.9113 37.4318 26.9113C37.2619 26.9113 37.1113 26.9731 36.98 27.0967C36.8564 27.2125 36.7946 27.3516 36.7946 27.5138Z" fill="#B69B89"/>
<path d="M1 25C1 11.7452 11.7452 1 25 1C31.9309 1 38.1756 3.93793 42.5566 8.63636" stroke="#B69B89" stroke-width="0.827586"/>
<path d="M49 25C49 31.324 46.5541 37.0766 42.5566 41.3636C38.1756 46.0621 31.9309 49 25 49C11.7452 49 1 38.2548 1 25" stroke="#B69B89" stroke-width="0.827586"/>
</svg>
