<svg width="333" height="530" viewBox="0 0 333 530" fill="none" xmlns="http://www.w3.org/2000/svg">
<g opacity="0.5">
<path d="M233.462 282.316C228.904 287.093 224.413 291.678 220.049 296.072C210.685 253.831 182.378 201.512 114.217 182.842C109.883 196.45 116.075 229.602 175.514 253.353C202.16 264 214.87 280.016 219.669 296.454C225.574 316.686 219.496 337.556 212.664 349.84C216.84 344.104 223.159 337.371 231.174 331.346C228.387 353.772 223.557 374.555 218.333 392.392C211.748 399.77 205.456 407.841 199.662 416.64C163.596 471.402 164.294 497.95 169.464 505.112C161.921 521.48 159.025 532.516 169.942 527.972C179.641 523.935 173.038 510.035 169.942 505.705C169.779 505.525 169.62 505.327 169.464 505.112C177.322 488.061 190.223 465.224 197.804 448.184C201.888 439.005 210.548 418.97 218.333 392.392C253.962 352.466 298.16 332.794 318.54 327.574C283.285 305.162 251.678 315.935 231.174 331.346C233.124 315.658 234.075 299.166 233.462 282.316C292.044 220.913 361.785 127.719 318.54 1C291.637 10.2036 249.906 36.1921 223.35 82.6435C210.153 105.727 200.704 133.863 198.684 167.505C189.504 153.474 178.188 139.935 164.37 127.176C167.465 113.569 171.799 81.9013 164.37 64.0882C155.082 41.8217 136.507 21.4109 121.647 19.5553C106.788 17.6998 114.217 32.5441 114.217 38.1107C114.217 41.5691 108.482 52.9061 107.701 64.1119C99.3 52.3542 84.3736 35.4089 49.2056 26.9775C2.76859 15.8443 -2.80386 64.0882 2.76859 69.6548C8.34103 75.2214 6.48355 77.0769 8.34103 82.6435C10.1985 88.2101 15.771 82.6435 17.6284 88.2101C19.4859 93.7767 23.2009 99.3433 30.6308 104.91C38.0607 110.477 101.215 97.4878 114.217 104.91C114.871 105.283 115.548 105.647 116.245 106C129.405 112.677 149.51 115.67 149.51 108.621C149.51 101.805 132.278 96.5538 117.955 85.6821C117.494 80.2055 116.179 75.8155 114.217 73.3658C112.414 71.1144 110.393 67.8795 107.701 64.1119C108.482 52.9061 114.217 41.5691 114.217 38.1107C114.217 32.5441 106.788 17.6998 121.647 19.5553C136.507 21.4109 155.082 41.8217 164.37 64.0882C171.799 81.9013 167.465 113.569 164.37 127.176C178.188 139.935 189.504 153.474 198.684 167.505C197.939 179.903 198.204 193.048 199.662 206.964C204.494 204.944 209.919 202.104 215.278 198.347C227.227 225.984 232.454 254.633 233.462 282.316Z" fill="#F6F3F1"/>
<path d="M153.224 474.161C147.033 443.854 145.423 372.107 188.516 327.574C242.383 271.908 374.265 164.287 318.54 1C273.342 16.4628 186.288 79.3035 199.662 206.964C226.286 195.831 270.902 159.834 223.35 82.6435M223.809 334.996C225.666 294.793 206.349 208.078 114.217 182.842C109.883 196.45 116.075 229.602 175.514 253.353C234.954 277.103 225.047 327.574 212.664 349.84C227.524 329.43 269.502 296.401 318.54 327.574C294.393 333.759 236.812 360.231 199.662 416.64C162.512 473.048 164.369 499.52 169.942 505.705C173.038 510.035 179.641 523.935 169.942 527.972C147.652 537.249 182.944 481.583 197.804 448.184C212.549 415.042 286.963 240.364 164.37 127.176C167.465 113.569 171.799 81.9013 164.37 64.0882C155.082 41.8217 136.507 21.4109 121.647 19.5553C106.788 17.6998 114.217 32.5441 114.217 38.1107C114.217 43.6773 99.3576 69.6548 114.217 82.6435C129.077 95.6322 149.51 101.199 149.51 108.621C149.51 116.043 127.22 112.332 114.217 104.91C101.215 97.4878 38.0607 110.477 30.6308 104.91C23.2009 99.3433 19.4859 93.7767 17.6284 88.2101C15.771 82.6435 10.1985 88.2101 8.34103 82.6435C6.48355 77.0769 8.34103 75.2214 2.76859 69.6548C-2.80386 64.0882 2.76858 15.8443 49.2056 26.9775C95.6427 38.1107 106.788 64.0882 114.217 73.3658C121.647 82.6435 119.79 119.754 97.5002 138.31C75.2104 156.865 51.0631 175.42 34.3458 171.709C17.6284 167.998 26.9158 153.154 25.0583 147.587C23.2009 142.021 8.34103 136.454 8.34103 127.176C3.38775 120.373 -1.68936 105.281 17.6284 99.3433" stroke="#B69B89"/>
</g>
</svg>
