<svg width="52" height="33" viewBox="0 0 52 33" fill="none" xmlns="http://www.w3.org/2000/svg">
<path opacity="0.3" d="M40.7653 3.26416C34.8673 3.26416 30.2103 8.04616 30.2103 13.9442C30.2103 19.8422 35.0543 24.6242 40.9523 24.6242C41.0113 24.6242 41.1003 24.6162 41.1593 24.6152C38.8273 26.4722 35.8983 27.5912 32.6923 27.5912C31.2173 27.5912 30.0303 28.7872 30.0303 30.2612C30.0303 31.7352 30.9793 32.9312 32.4543 32.9312C42.9233 32.9302 51.1953 24.4132 51.1953 13.9442C51.1953 13.9422 51.1953 13.9402 51.1953 13.9372C51.1953 8.04216 46.6613 3.26416 40.7653 3.26416Z" fill="#B69B89"/>
<path opacity="0.3" d="M15.75 3.26416C9.852 3.26416 5.187 8.04616 5.187 13.9442C5.187 19.8422 10.027 24.6242 15.926 24.6242C15.985 24.6242 16.072 24.6162 16.131 24.6152C13.799 26.4722 10.869 27.5912 7.663 27.5912C6.188 27.5912 5 28.7872 5 30.2612C5 31.7352 5.964 32.9312 7.439 32.9312C17.908 32.9302 26.195 24.4132 26.195 13.9442C26.195 13.9422 26.195 13.9402 26.195 13.9372C26.195 8.04216 21.646 3.26416 15.75 3.26416Z" fill="#B69B89"/>
<path d="M37.621 21.0903L36.4707 22.0063C34.0551 23.9299 31.0175 25.0912 27.6923 25.0912C26.4955 25.0912 25.5303 26.0612 25.5303 27.2612C25.5303 28.5252 26.3173 29.4311 27.4542 29.4312L37.621 21.0903ZM37.621 21.0903L36.1508 21.1152M37.621 21.0903L36.1508 21.1152M36.1508 21.1152C36.1129 21.1159 36.0689 21.1184 36.0373 21.1203L36.0271 21.1209C35.9872 21.1232 35.9649 21.1242 35.9523 21.1242C30.3266 21.1242 25.7103 16.5623 25.7103 10.9442C25.7103 5.31459 30.1511 0.76416 35.7653 0.76416M36.1508 21.1152L35.7653 0.76416M35.7653 0.76416C41.3702 0.76416 45.6953 5.30309 45.6953 10.9372V10.9372V10.9372V10.9372V10.9372V10.9372V10.9373V10.9373V10.9373V10.9373V10.9373V10.9374V10.9374V10.9374V10.9374V10.9374V10.9374V10.9375V10.9375V10.9375V10.9375V10.9375V10.9375V10.9376V10.9376V10.9376V10.9376V10.9376V10.9376V10.9377V10.9377V10.9377V10.9377V10.9377V10.9377V10.9378V10.9378V10.9378V10.9378V10.9378V10.9378V10.9379V10.9379V10.9379V10.9379V10.9379V10.9379V10.938V10.938V10.938V10.938V10.938V10.938V10.9381V10.9381V10.9381V10.9381V10.9381V10.9381V10.9382V10.9382V10.9382V10.9382V10.9382V10.9382V10.9383V10.9383V10.9383V10.9383V10.9383V10.9383V10.9384V10.9384V10.9384V10.9384V10.9384V10.9384V10.9384V10.9385V10.9385V10.9385V10.9385V10.9385V10.9385V10.9386V10.9386V10.9386V10.9386V10.9386V10.9386V10.9387V10.9387V10.9387V10.9387V10.9387V10.9387V10.9387V10.9388V10.9388V10.9388V10.9388V10.9388V10.9388V10.9389V10.9389V10.9389V10.9389V10.9389V10.9389V10.939V10.939V10.939V10.939V10.939V10.939V10.939V10.9391V10.9391V10.9391V10.9391V10.9391V10.9391V10.9392V10.9392V10.9392V10.9392V10.9392V10.9393V10.9393V10.9393V10.9393V10.9393V10.9394V10.9394V10.9394V10.9394V10.9395V10.9395V10.9395V10.9396V10.9396V10.9396V10.9396V10.9397V10.9397V10.9397V10.9397V10.9398V10.9398V10.9398V10.9398V10.9399V10.9399V10.9399V10.94V10.94V10.94V10.94V10.9401V10.9401V10.9401V10.9402V10.9402V10.9402V10.9402V10.9403V10.9403V10.9403V10.9403V10.9404V10.9404V10.9404V10.9405V10.9405V10.9405V10.9405V10.9406V10.9406V10.9406V10.9406V10.9407V10.9407V10.9407V10.9408V10.9408V10.9408V10.9408V10.9409V10.9409V10.9409V10.9409V10.941V10.941V10.941V10.941V10.9411V10.9411V10.9411V10.9412V10.9412V10.9412V10.9412V10.9413V10.9413V10.9413V10.9413V10.9414V10.9414V10.9414V10.9414V10.9415V10.9415V10.9415V10.9415V10.9416V10.9416V10.9416V10.9416V10.9417V10.9417V10.9417V10.9417V10.9418V10.9418V10.9418V10.9418V10.9419V10.9419V10.9419V10.9419V10.942V10.942V10.942V10.942V10.9421V10.9421V10.9421V10.9421V10.9422V10.9422V10.9422V10.9422V10.9423V10.9423V10.9423V10.9423V10.9424V10.9424V10.9424V10.9424V10.9425V10.9425V10.9425V10.9425V10.9426V10.9426V10.9426V10.9426V10.9427V10.9427V10.9427V10.9427V10.9428V10.9428V10.9428V10.9428V10.9428V10.9429V10.9429V10.9429V10.9429V10.943V10.943V10.943V10.943V10.9431V10.9431V10.9431V10.9431V10.9432V10.9432V10.9432V10.9432V10.9433V10.9433V10.9433V10.9433V10.9433V10.9434V10.9434V10.9434V10.9434V10.9435V10.9435V10.9435V10.9435V10.9436V10.9436V10.9436V10.9436V10.9437V10.9437V10.9437V10.9437V10.9438V10.9438V10.9438V10.9438V10.9438V10.9439V10.9439V10.9439V10.9439V10.944V10.944V10.944V10.944V10.9441V10.9441V10.9441V10.9441V10.9442C45.6953 21.1455 37.6387 29.4302 27.4543 29.4312L35.7653 0.76416Z" stroke="#B69B89"/>
<path d="M12.5927 21.0903L11.4425 22.0063C9.0268 23.9299 5.9882 25.0912 2.663 25.0912C1.46597 25.0912 0.5 26.0615 0.5 27.2612C0.5 28.5208 1.29814 29.4311 2.43895 29.4312L12.5927 21.0903ZM12.5927 21.0903L11.1225 21.1152M12.5927 21.0903L11.1225 21.1152M11.1225 21.1152C11.0843 21.1159 11.0405 21.1185 11.0093 21.1203L10.9994 21.1209C10.9601 21.1232 10.9384 21.1242 10.926 21.1242C5.29958 21.1242 0.687 16.5625 0.687 10.9442C0.687 5.31509 5.1353 0.76416 10.75 0.76416M11.1225 21.1152L10.75 0.76416M10.75 0.76416C16.3558 0.76416 20.695 5.30405 20.695 10.9372V10.9372V10.9372V10.9372V10.9372V10.9372V10.9373V10.9373V10.9373V10.9373V10.9373V10.9374V10.9374V10.9374V10.9374V10.9374V10.9374V10.9375V10.9375V10.9375V10.9375V10.9375V10.9375V10.9376V10.9376V10.9376V10.9376V10.9376V10.9376V10.9377V10.9377V10.9377V10.9377V10.9377V10.9377V10.9378V10.9378V10.9378V10.9378V10.9378V10.9378V10.9379V10.9379V10.9379V10.9379V10.9379V10.9379V10.938V10.938V10.938V10.938V10.938V10.938V10.9381V10.9381V10.9381V10.9381V10.9381V10.9381V10.9382V10.9382V10.9382V10.9382V10.9382V10.9382V10.9383V10.9383V10.9383V10.9383V10.9383V10.9383V10.9384V10.9384V10.9384V10.9384V10.9384V10.9384V10.9384V10.9385V10.9385V10.9385V10.9385V10.9385V10.9385V10.9386V10.9386V10.9386V10.9386V10.9386V10.9386V10.9387V10.9387V10.9387V10.9387V10.9387V10.9387V10.9387V10.9388V10.9388V10.9388V10.9388V10.9388V10.9388V10.9389V10.9389V10.9389V10.9389V10.9389V10.9389V10.939V10.939V10.939V10.939V10.939V10.939V10.939V10.9391V10.9391V10.9391V10.9391V10.9391V10.9391V10.9391V10.9392V10.9392V10.9392V10.9392V10.9392V10.9392V10.9393V10.9393V10.9393V10.9393V10.9393V10.9393V10.9393V10.9394V10.9394V10.9394V10.9394V10.9394V10.9394V10.9394V10.9395V10.9395V10.9395V10.9395V10.9395V10.9395V10.9396V10.9396V10.9396V10.9396V10.9396V10.9396V10.9396V10.9397V10.9397V10.9397V10.9397V10.9397V10.9397V10.9397V10.9398V10.9398V10.9398V10.9398V10.9398V10.9398V10.9398V10.9399V10.9399V10.9399V10.9399V10.9399V10.9399V10.9399V10.94V10.94V10.94V10.94V10.94V10.94V10.9401V10.9401V10.9401V10.9401V10.9401V10.9401V10.9402V10.9402V10.9402V10.9402V10.9403V10.9403V10.9403V10.9403V10.9403V10.9404V10.9404V10.9404V10.9404V10.9405V10.9405V10.9405V10.9405V10.9406V10.9406V10.9406V10.9406V10.9407V10.9407V10.9407V10.9407V10.9408V10.9408V10.9408V10.9408V10.9409V10.9409V10.9409V10.9409V10.941V10.941V10.941V10.941V10.9411V10.9411V10.9411V10.9412V10.9412V10.9412V10.9412V10.9413V10.9413V10.9413V10.9413V10.9414V10.9414V10.9414V10.9414V10.9415V10.9415V10.9415V10.9415V10.9416V10.9416V10.9416V10.9416V10.9417V10.9417V10.9417V10.9417V10.9418V10.9418V10.9418V10.9418V10.9419V10.9419V10.9419V10.9419V10.942V10.942V10.942V10.942V10.9421V10.9421V10.9421V10.9421V10.9422V10.9422V10.9422V10.9422V10.9423V10.9423V10.9423V10.9423V10.9424V10.9424V10.9424V10.9424V10.9425V10.9425V10.9425V10.9425V10.9426V10.9426V10.9426V10.9426V10.9427V10.9427V10.9427V10.9427V10.9428V10.9428V10.9428V10.9428V10.9428V10.9429V10.9429V10.9429V10.9429V10.943V10.943V10.943V10.943V10.9431V10.9431V10.9431V10.9431V10.9432V10.9432V10.9432V10.9432V10.9433V10.9433V10.9433V10.9433V10.9433V10.9434V10.9434V10.9434V10.9434V10.9435V10.9435V10.9435V10.9435V10.9436V10.9436V10.9436V10.9436V10.9437V10.9437V10.9437V10.9437V10.9438V10.9438V10.9438V10.9438V10.9438V10.9439V10.9439V10.9439V10.9439V10.944V10.944V10.944V10.944V10.9441V10.9441V10.9441V10.9441V10.9442C20.695 21.145 12.624 29.4302 2.439 29.4312L10.75 0.76416Z" stroke="#B69B89"/>
</svg>
